TITLE ""
FILE "2Q_t_0001-0017.mp3" MP3
  TRACK 01 AUDIO
    TITLE "2Q_t_0001-0017_01"
    INDEX 01 00:00:00
  TRACK 02 AUDIO
    TITLE "2Q_t_0001-0017_02"
    INDEX 01 00:02:72
  TRACK 03 AUDIO
    TITLE "2Q_t_0001-0017_03"
    INDEX 01 00:04:04
  TRACK 04 AUDIO
    TITLE "2Q_t_0001-0017_04"
    INDEX 01 00:07:44
  TRACK 05 AUDIO
    TITLE "2Q_t_0001-0017_05"
    INDEX 01 00:08:51
  TRACK 06 AUDIO
    TITLE "2Q_t_0001-0017_06"
    INDEX 01 00:10:05
  TRACK 07 AUDIO
    TITLE "2Q_t_0001-0017_07"
    INDEX 01 00:10:52
  TRACK 08 AUDIO
    TITLE "2Q_t_0001-0017_08"
    INDEX 01 00:11:59
  TRACK 09 AUDIO
    TITLE "2Q_t_0001-0017_09"
    INDEX 01 00:12:27
  TRACK 10 AUDIO
    TITLE "2Q_t_0001-0017_10"
    INDEX 01 00:13:25
  TRACK 11 AUDIO
    TITLE "2Q_t_0001-0017_11"
    INDEX 01 00:13:70
  TRACK 12 AUDIO
    TITLE "2Q_t_0001-0017_12"
    INDEX 01 00:20:72
  TRACK 13 AUDIO
    TITLE "2Q_t_0001-0017_13"
    INDEX 01 00:21:42
  TRACK 14 AUDIO
    TITLE "2Q_t_0001-0017_14"
    INDEX 01 00:22:55
  TRACK 15 AUDIO
    TITLE "2Q_t_0001-0017_15"
    INDEX 01 00:23:27
  TRACK 16 AUDIO
    TITLE "2Q_t_0001-0017_16"
    INDEX 01 00:26:21
  TRACK 17 AUDIO
    TITLE "2Q_t_0001-0017_17"
    INDEX 01 00:26:68
  TRACK 18 AUDIO
    TITLE "2Q_t_0001-0017_18"
    INDEX 01 00:28:09
  TRACK 19 AUDIO
    TITLE "2Q_t_0001-0017_19"
    INDEX 01 00:28:56
  TRACK 20 AUDIO
    TITLE "2Q_t_0001-0017_20"
    INDEX 01 00:31:60
  TRACK 21 AUDIO
    TITLE "2Q_t_0001-0017_21"
    INDEX 01 00:32:28
  TRACK 22 AUDIO
    TITLE "2Q_t_0001-0017_22"
    INDEX 01 00:33:59
  TRACK 23 AUDIO
    TITLE "2Q_t_0001-0017_23"
    INDEX 01 00:34:27
  TRACK 24 AUDIO
    TITLE "2Q_t_0001-0017_24"
    INDEX 01 00:36:61
  TRACK 25 AUDIO
    TITLE "2Q_t_0001-0017_25"
    INDEX 01 00:37:29
  TRACK 26 AUDIO
    TITLE "2Q_t_0001-0017_26"
    INDEX 01 00:38:40
  TRACK 27 AUDIO
    TITLE "2Q_t_0001-0017_27"
    INDEX 01 00:39:10
  TRACK 28 AUDIO
    TITLE "2Q_t_0001-0017_28"
    INDEX 01 00:47:35
  TRACK 29 AUDIO
    TITLE "2Q_t_0001-0017_29"
    INDEX 01 00:48:05
  TRACK 30 AUDIO
    TITLE "2Q_t_0001-0017_30"
    INDEX 01 00:49:17
  TRACK 31 AUDIO
    TITLE "2Q_t_0001-0017_31"
    INDEX 01 00:49:66
  TRACK 32 AUDIO
    TITLE "2Q_t_0001-0017_32"
    INDEX 01 00:54:20
  TRACK 33 AUDIO
    TITLE "2Q_t_0001-0017_33"
    INDEX 01 00:54:65
  TRACK 34 AUDIO
    TITLE "2Q_t_0001-0017_34"
    INDEX 01 00:56:07
  TRACK 35 AUDIO
    TITLE "2Q_t_0001-0017_35"
    INDEX 01 00:56:54
  TRACK 36 AUDIO
    TITLE "2Q_t_0001-0017_36"
    INDEX 01 00:59:33
  TRACK 37 AUDIO
    TITLE "2Q_t_0001-0017_37"
    INDEX 01 01:00:03
  TRACK 38 AUDIO
    TITLE "2Q_t_0001-0017_38"
    INDEX 01 01:01:33
  TRACK 39 AUDIO
    TITLE "2Q_t_0001-0017_39"
    INDEX 01 01:02:04
  TRACK 40 AUDIO
    TITLE "2Q_t_0001-0017_40"
    INDEX 01 01:06:43
  TRACK 41 AUDIO
    TITLE "2Q_t_0001-0017_41"
    INDEX 01 01:07:13
  TRACK 42 AUDIO
    TITLE "2Q_t_0001-0017_42"
    INDEX 01 01:08:28
  TRACK 43 AUDIO
    TITLE "2Q_t_0001-0017_43"
    INDEX 01 01:08:75
  TRACK 44 AUDIO
    TITLE "2Q_t_0001-0017_44"
    INDEX 01 01:13:48
  TRACK 45 AUDIO
    TITLE "2Q_t_0001-0017_45"
    INDEX 01 01:14:17
  TRACK 46 AUDIO
    TITLE "2Q_t_0001-0017_46"
    INDEX 01 01:15:26
  TRACK 47 AUDIO
    TITLE "2Q_t_0001-0017_47"
    INDEX 01 01:15:75
  TRACK 48 AUDIO
    TITLE "2Q_t_0001-0017_48"
    INDEX 01 01:18:73
  TRACK 49 AUDIO
    TITLE "2Q_t_0001-0017_49"
    INDEX 01 01:19:43
  TRACK 50 AUDIO
    TITLE "2Q_t_0001-0017_50"
    INDEX 01 01:20:41
  TRACK 51 AUDIO
    TITLE "2Q_t_0001-0017_51"
    INDEX 01 01:21:15
  TRACK 52 AUDIO
    TITLE "2Q_t_0001-0017_52"
    INDEX 01 01:24:72
  TRACK 53 AUDIO
    TITLE "2Q_t_0001-0017_53"
    INDEX 01 01:25:40
  TRACK 54 AUDIO
    TITLE "2Q_t_0001-0017_54"
    INDEX 01 01:26:45
  TRACK 55 AUDIO
    TITLE "2Q_t_0001-0017_55"
    INDEX 01 01:27:19
  TRACK 56 AUDIO
    TITLE "2Q_t_0001-0017_56"
    INDEX 01 01:28:40
  TRACK 57 AUDIO
    TITLE "2Q_t_0001-0017_57"
    INDEX 01 01:29:10
  TRACK 58 AUDIO
    TITLE "2Q_t_0001-0017_58"
    INDEX 01 01:30:29
  TRACK 59 AUDIO
    TITLE "2Q_t_0001-0017_59"
    INDEX 01 01:31:03
  TRACK 60 AUDIO
    TITLE "2Q_t_0001-0017_60"
    INDEX 01 01:32:34
  TRACK 61 AUDIO
    TITLE "2Q_t_0001-0017_61"
    INDEX 01 01:33:04
  TRACK 62 AUDIO
    TITLE "2Q_t_0001-0017_62"
    INDEX 01 01:34:07
  TRACK 63 AUDIO
    TITLE "2Q_t_0001-0017_63"
    INDEX 01 01:34:54
  TRACK 64 AUDIO
    TITLE "2Q_t_0001-0017_64"
    INDEX 01 01:36:30
  TRACK 65 AUDIO
    TITLE "2Q_t_0001-0017_65"
    INDEX 01 01:36:75
  TRACK 66 AUDIO
    TITLE "2Q_t_0001-0017_66"
    INDEX 01 01:37:59
  TRACK 67 AUDIO
    TITLE "2Q_t_0001-0017_67"
    INDEX 01 01:38:43
  TRACK 68 AUDIO
    TITLE "2Q_t_0001-0017_68"
    INDEX 01 01:41:33
  TRACK 69 AUDIO
    TITLE "2Q_t_0001-0017_69"
    INDEX 01 01:42:03
  TRACK 70 AUDIO
    TITLE "2Q_t_0001-0017_70"
    INDEX 01 01:43:24
  TRACK 71 AUDIO
    TITLE "2Q_t_0001-0017_71"
    INDEX 01 01:43:73
  TRACK 72 AUDIO
    TITLE "2Q_t_0001-0017_72"
    INDEX 01 01:46:66
  TRACK 73 AUDIO
    TITLE "2Q_t_0001-0017_73"
    INDEX 01 01:47:36
  TRACK 74 AUDIO
    TITLE "2Q_t_0001-0017_74"
    INDEX 01 01:48:37
  TRACK 75 AUDIO
    TITLE "2Q_t_0001-0017_75"
    INDEX 01 01:49:13
  TRACK 76 AUDIO
    TITLE "2Q_t_0001-0017_76"
    INDEX 01 01:50:54
